<svg width="271" height="27" viewBox="0 0 271 27" fill="none" xmlns="http://www.w3.org/2000/svg">
<g filter="url(#filter0_d_10_39)">
<path d="M21.395 18H17.0981L15.853 14.106H9.62744L8.39453 18H4.12207L10.4941 0.495117H15.1694L21.395 18ZM14.9497 11.0786L13.0698 5.19482C12.9315 4.75537 12.8338 4.23047 12.7769 3.62012H12.6792C12.6385 4.13281 12.5368 4.64144 12.374 5.146L10.4697 11.0786H14.9497ZM39.3271 18H35.3477L28.1333 7.00146C27.7101 6.35856 27.4172 5.87435 27.2544 5.54883H27.2056C27.2707 6.16732 27.3032 7.11133 27.3032 8.38086V18H23.5801V0.495117H27.8281L34.7739 11.1519C35.0913 11.632 35.3843 12.1081 35.6528 12.5801H35.7017C35.6366 12.1732 35.604 11.3716 35.604 10.1753V0.495117H39.3271V18ZM47.2739 18H43.3311V0.495117H47.2739V18ZM50.46 17.3286V13.4224C51.168 14.0164 51.937 14.464 52.7671 14.7651C53.5972 15.0581 54.4354 15.2046 55.2817 15.2046C55.7782 15.2046 56.2095 15.1598 56.5757 15.0703C56.95 14.9808 57.2593 14.8587 57.5034 14.7041C57.7557 14.5413 57.9429 14.3542 58.0649 14.1426C58.187 13.9229 58.248 13.6868 58.248 13.4346C58.248 13.0928 58.1504 12.7876 57.9551 12.519C57.7598 12.2505 57.4912 12.0023 57.1494 11.7744C56.8158 11.5465 56.417 11.3268 55.9531 11.1152C55.4893 10.9036 54.9888 10.688 54.4517 10.4683C53.0845 9.8986 52.0632 9.2028 51.3877 8.38086C50.7204 7.55892 50.3867 6.56608 50.3867 5.40234C50.3867 4.49089 50.5698 3.70964 50.936 3.05859C51.3022 2.39941 51.7987 1.85824 52.4253 1.43506C53.0601 1.01188 53.7925 0.702637 54.6226 0.507324C55.4526 0.303874 56.3315 0.202148 57.2593 0.202148C58.1707 0.202148 58.9764 0.259115 59.6763 0.373047C60.3843 0.478841 61.0353 0.645671 61.6294 0.873535V4.52344C61.3364 4.31999 61.015 4.14095 60.665 3.98633C60.3232 3.83171 59.9692 3.70557 59.603 3.60791C59.2368 3.50212 58.8706 3.4248 58.5044 3.37598C58.1463 3.32715 57.8045 3.30273 57.479 3.30273C57.0314 3.30273 56.6245 3.34749 56.2583 3.43701C55.8921 3.51839 55.5828 3.63639 55.3306 3.79102C55.0783 3.94564 54.883 4.13281 54.7446 4.35254C54.6063 4.56413 54.5371 4.8042 54.5371 5.07275C54.5371 5.36572 54.6144 5.63021 54.769 5.86621C54.9237 6.09408 55.1434 6.3138 55.4282 6.52539C55.7131 6.72884 56.0589 6.93229 56.4658 7.13574C56.8727 7.33105 57.3325 7.53451 57.8452 7.74609C58.5451 8.03906 59.1717 8.35238 59.7251 8.68604C60.2866 9.01156 60.7668 9.38184 61.1655 9.79688C61.5643 10.2119 61.8695 10.688 62.0811 11.2251C62.2926 11.7541 62.3984 12.3726 62.3984 13.0806C62.3984 14.0571 62.2113 14.8791 61.8369 15.5464C61.4707 16.2056 60.9702 16.7427 60.3354 17.1577C59.7007 17.5646 58.9601 17.8576 58.1138 18.0366C57.2756 18.2157 56.3885 18.3052 55.4526 18.3052C54.4924 18.3052 53.5768 18.2238 52.7061 18.061C51.8434 17.8983 51.0947 17.6541 50.46 17.3286ZM80.4282 18H76.4731V10.8711H69.2222V18H65.2793V0.495117H69.2222V7.47754H76.4731V0.495117H80.4282V18ZM105.904 18H100.924L95.8213 10.395C95.7236 10.2485 95.569 9.92708 95.3574 9.43066H95.2964V18H91.3535V0.495117H95.2964V8.77148H95.3574C95.4551 8.54362 95.6178 8.2181 95.8457 7.79492L100.68 0.495117H105.379L99.2759 8.84473L105.904 18ZM121.859 10.4194C121.859 15.6766 119.409 18.3052 114.51 18.3052C109.758 18.3052 107.381 15.7376 107.381 10.6025V0.495117H111.336V10.6514C111.336 13.4834 112.443 14.8994 114.657 14.8994C116.83 14.8994 117.916 13.5322 117.916 10.7979V0.495117H121.859V10.4194ZM145.626 18H141.732V7.52637C141.732 6.39518 141.781 5.146 141.878 3.77881H141.781C141.577 4.85303 141.394 5.62614 141.231 6.09814L137.13 18H133.907L129.732 6.22021C129.618 5.90283 129.435 5.08903 129.183 3.77881H129.073C129.179 5.50407 129.232 7.01774 129.232 8.31982V18H125.68V0.495117H131.454L135.03 10.8711C135.315 11.7012 135.523 12.5353 135.653 13.3735H135.726C135.946 12.4051 136.178 11.5628 136.422 10.8467L139.999 0.495117H145.626V18ZM164.999 18H160.702L159.457 14.106H153.231L151.998 18H147.726L154.098 0.495117H158.773L164.999 18ZM158.553 11.0786L156.673 5.19482C156.535 4.75537 156.437 4.23047 156.38 3.62012H156.283C156.242 4.13281 156.14 4.64144 155.978 5.146L154.073 11.0786H158.553ZM181.869 18H177.34L174.618 13.4956C174.414 13.1538 174.219 12.8486 174.032 12.5801C173.845 12.3115 173.653 12.0837 173.458 11.8965C173.271 11.7012 173.071 11.5547 172.86 11.457C172.656 11.3512 172.433 11.2983 172.188 11.2983H171.126V18H167.184V0.495117H173.434C177.682 0.495117 179.806 2.08203 179.806 5.25586C179.806 5.86621 179.712 6.4318 179.525 6.95264C179.338 7.46533 179.073 7.9292 178.731 8.34424C178.39 8.75928 177.975 9.11735 177.486 9.41846C177.006 9.71956 176.469 9.95557 175.875 10.1265V10.1753C176.135 10.2567 176.388 10.391 176.632 10.5781C176.876 10.7572 177.112 10.9688 177.34 11.2129C177.568 11.457 177.783 11.7215 177.987 12.0063C178.198 12.283 178.39 12.5557 178.561 12.8242L181.869 18ZM171.126 3.44922V8.31982H172.835C173.682 8.31982 174.361 8.07568 174.874 7.5874C175.395 7.09098 175.655 6.47656 175.655 5.74414C175.655 4.21419 174.74 3.44922 172.909 3.44922H171.126ZM189.62 17.3286V13.4224C190.328 14.0164 191.097 14.464 191.927 14.7651C192.757 15.0581 193.596 15.2046 194.442 15.2046C194.938 15.2046 195.37 15.1598 195.736 15.0703C196.11 14.9808 196.419 14.8587 196.664 14.7041C196.916 14.5413 197.103 14.3542 197.225 14.1426C197.347 13.9229 197.408 13.6868 197.408 13.4346C197.408 13.0928 197.311 12.7876 197.115 12.519C196.92 12.2505 196.651 12.0023 196.31 11.7744C195.976 11.5465 195.577 11.3268 195.113 11.1152C194.649 10.9036 194.149 10.688 193.612 10.4683C192.245 9.8986 191.223 9.2028 190.548 8.38086C189.881 7.55892 189.547 6.56608 189.547 5.40234C189.547 4.49089 189.73 3.70964 190.096 3.05859C190.462 2.39941 190.959 1.85824 191.585 1.43506C192.22 1.01188 192.953 0.702637 193.783 0.507324C194.613 0.303874 195.492 0.202148 196.419 0.202148C197.331 0.202148 198.137 0.259115 198.836 0.373047C199.544 0.478841 200.195 0.645671 200.79 0.873535V4.52344C200.497 4.31999 200.175 4.14095 199.825 3.98633C199.483 3.83171 199.129 3.70557 198.763 3.60791C198.397 3.50212 198.031 3.4248 197.665 3.37598C197.306 3.32715 196.965 3.30273 196.639 3.30273C196.192 3.30273 195.785 3.34749 195.418 3.43701C195.052 3.51839 194.743 3.63639 194.491 3.79102C194.238 3.94564 194.043 4.13281 193.905 4.35254C193.766 4.56413 193.697 4.8042 193.697 5.07275C193.697 5.36572 193.775 5.63021 193.929 5.86621C194.084 6.09408 194.304 6.3138 194.588 6.52539C194.873 6.72884 195.219 6.93229 195.626 7.13574C196.033 7.33105 196.493 7.53451 197.005 7.74609C197.705 8.03906 198.332 8.35238 198.885 8.68604C199.447 9.01156 199.927 9.38184 200.326 9.79688C200.724 10.2119 201.03 10.688 201.241 11.2251C201.453 11.7541 201.559 12.3726 201.559 13.0806C201.559 14.0571 201.371 14.8791 200.997 15.5464C200.631 16.2056 200.13 16.7427 199.496 17.1577C198.861 17.5646 198.12 17.8576 197.274 18.0366C196.436 18.2157 195.549 18.3052 194.613 18.3052C193.653 18.3052 192.737 18.2238 191.866 18.061C191.004 17.8983 190.255 17.6541 189.62 17.3286ZM208.382 18H204.439V0.495117H208.382V18ZM228.121 18H224.142L216.927 7.00146C216.504 6.35856 216.211 5.87435 216.048 5.54883H216C216.065 6.16732 216.097 7.11133 216.097 8.38086V18H212.374V0.495117H216.622L223.568 11.1519C223.885 11.632 224.178 12.1081 224.447 12.5801H224.496C224.431 12.1732 224.398 11.3716 224.398 10.1753V0.495117H228.121V18ZM247.274 18H243.319V10.8711H236.068V18H232.125V0.495117H236.068V7.47754H243.319V0.495117H247.274V18ZM266.683 18H262.386L261.141 14.106H254.916L253.683 18H249.41L255.782 0.495117H260.458L266.683 18ZM260.238 11.0786L258.358 5.19482C258.22 4.75537 258.122 4.23047 258.065 3.62012H257.967C257.927 4.13281 257.825 4.64144 257.662 5.146L255.758 11.0786H260.238Z" fill="black"/>
</g>
<defs>
<filter id="filter0_d_10_39" x="0.12207" y="0.202148" width="270.561" height="26.103" filterUnits="userSpaceOnUse" color-interpolation-filters="sRGB">
<feFlood flood-opacity="0" result="BackgroundImageFix"/>
<feColorMatrix in="SourceAlpha" type="matrix" values="0 0 0 0 0 0 0 0 0 0 0 0 0 0 0 0 0 0 127 0" result="hardAlpha"/>
<feOffset dy="4"/>
<feGaussianBlur stdDeviation="2"/>
<feComposite in2="hardAlpha" operator="out"/>
<feColorMatrix type="matrix" values="0 0 0 0 0 0 0 0 0 0 0 0 0 0 0 0 0 0 0.25 0"/>
<feBlend mode="normal" in2="BackgroundImageFix" result="effect1_dropShadow_10_39"/>
<feBlend mode="normal" in="SourceGraphic" in2="effect1_dropShadow_10_39" result="shape"/>
</filter>
</defs>
</svg>
